<svg width="33" height="33" viewBox="0 0 33 33" fill="none" xmlns="http://www.w3.org/2000/svg">
<rect width="33" height="33" rx="16.5" fill="black"/>
<path d="M19.3748 26.0832V22.2498C19.5082 21.0493 19.1639 19.8445 18.4165 18.8957C21.2915 18.8957 24.1665 16.979 24.1665 13.6248C24.2432 12.4269 23.9078 11.2482 23.2082 10.2707C23.4765 9.16859 23.4765 8.01859 23.2082 6.9165C23.2082 6.9165 22.2498 6.9165 20.3332 8.354C17.8032 7.87484 15.1965 7.87484 12.6665 8.354C10.7498 6.9165 9.7915 6.9165 9.7915 6.9165C9.504 8.01859 9.504 9.16859 9.7915 10.2707C9.09372 11.2442 8.75504 12.4296 8.83317 13.6248C8.83317 16.979 11.7082 18.8957 14.5832 18.8957C14.2094 19.3653 13.9315 19.9019 13.7686 20.4769C13.6057 21.0519 13.5578 21.6557 13.6248 22.2498M13.6248 22.2498V26.0832M13.6248 22.2498C9.30275 24.1665 8.83317 20.3332 6.9165 20.3332" stroke="white" stroke-width="1.5" stroke-linecap="round" stroke-linejoin="round"/>
</svg>
