<svg width="85" height="90" viewBox="0 0 85 90" fill="none" xmlns="http://www.w3.org/2000/svg">
<g clip-path="url(#clip0_1486_16212)">
<path d="M79.959 68.5229H16.0672C14.8819 68.5215 13.9213 67.5766 13.9199 66.4105V15.2306C13.9213 14.0645 14.8819 13.1195 16.0672 13.1182H79.959C81.1443 13.1195 82.1049 14.0645 82.1063 15.2306V66.4105C82.1049 67.5766 81.1443 68.5215 79.959 68.5229Z" fill="#E6E6E6"/>
<path d="M73.7507 67.0988H17.5154C16.3301 67.0974 15.3695 66.1525 15.3682 64.9864V16.6573C15.3695 15.4912 16.3301 14.5463 17.5154 14.5449H78.5102C79.6955 14.5463 80.6561 15.4912 80.6574 16.6573V60.3041C80.6532 64.055 77.5634 67.0946 73.7507 67.0988Z" fill="white"/>
<path d="M58.2969 25.4724H32.6173C32.3114 25.4724 32.0635 25.2285 32.0635 24.9276C32.0635 24.6267 32.3114 24.3828 32.6173 24.3828H58.2969C58.6027 24.3828 58.8507 24.6267 58.8507 24.9276C58.8507 25.2285 58.6027 25.4724 58.2969 25.4724Z" fill="#DE5C8E"/>
<path d="M71.2964 31.2854H32.6173C32.3114 31.2854 32.0635 31.0415 32.0635 30.7406C32.0635 30.4397 32.3114 30.1958 32.6173 30.1958H71.2964C71.6022 30.1958 71.8501 30.4397 71.8501 30.7406C71.8501 31.0415 71.6022 31.2854 71.2964 31.2854Z" fill="#E6E6E6"/>
<path d="M71.2964 37.0979H32.6173C32.3114 37.0979 32.0635 36.854 32.0635 36.5531C32.0635 36.2522 32.3114 36.0083 32.6173 36.0083H71.2964C71.6022 36.0083 71.8501 36.2522 71.8501 36.5531C71.8501 36.854 71.6022 37.0979 71.2964 37.0979Z" fill="#E6E6E6"/>
<path d="M71.2964 42.9099H32.6173C32.3114 42.9099 32.0635 42.666 32.0635 42.3651C32.0635 42.0642 32.3114 41.8203 32.6173 41.8203H71.2964C71.6022 41.8203 71.8501 42.0642 71.8501 42.3651C71.8501 42.666 71.6022 42.9099 71.2964 42.9099Z" fill="#E6E6E6"/>
<path d="M71.2964 48.7234H32.6173C32.3114 48.7234 32.0635 48.4795 32.0635 48.1786C32.0635 47.8777 32.3114 47.6338 32.6173 47.6338H71.2964C71.6022 47.6338 71.8501 47.8777 71.8501 48.1786C71.8501 48.4795 71.6022 48.7234 71.2964 48.7234Z" fill="#E6E6E6"/>
<path d="M69.557 57.9859C68.0084 57.9859 66.7529 56.7508 66.7529 55.2273C66.7529 53.7038 68.0084 52.4687 69.557 52.4688C71.1057 52.4688 72.3611 53.7038 72.3611 55.2273C72.3611 56.7509 71.1057 57.9859 69.557 57.9859Z" fill="#DE5C8E"/>
<path d="M71.1342 55.0959L70.3393 53.9544C70.266 53.8485 70.1193 53.8212 70.0117 53.8933C69.9041 53.9654 69.8763 54.1097 69.9496 54.2156L69.9503 54.2166L70.4644 54.9548H68.4503C68.2975 54.9544 68.1733 55.0758 68.1729 55.2261C68.1724 55.3764 68.2959 55.4986 68.4486 55.499H70.4897L69.9503 56.2736C69.8772 56.3796 69.9052 56.5238 70.013 56.5957C70.12 56.6672 70.2657 56.6405 70.3393 56.5358L71.1342 55.3943C71.1869 55.3016 71.1869 55.1886 71.1342 55.0959Z" fill="white"/>
<path d="M84.7215 5.57109H11.3064C11.1489 5.56778 11.024 5.43955 11.0274 5.28468C11.0307 5.13447 11.1537 5.01347 11.3064 5.01025H84.7215C84.8789 5.01356 85.0038 5.1418 85.0005 5.29667C84.9972 5.44688 84.8742 5.56788 84.7215 5.57109Z" fill="#CACACA"/>
<path d="M20.4937 60.8517C20.9182 60.5023 20.9744 59.8805 20.6193 59.4629C20.5814 59.4183 20.5396 59.3772 20.4944 59.3399L19.8864 54.1719L17.9561 54.6116L19.0288 59.5104C18.7004 59.9524 18.7983 60.5725 19.2475 60.8957C19.6233 61.166 20.1385 61.1478 20.4937 60.8517Z" fill="#FFB6B6"/>
<path d="M20.2928 55.0149L18.058 56.3865C18.058 56.3865 17.922 57.1903 17.7683 55.1702C17.7522 54.9593 17.9018 54.5919 17.8854 54.3755C17.8668 54.1313 17.1559 54.0202 17.1372 53.7732C17.1238 53.5973 17.3294 53.4409 17.3161 53.2655C17.296 52.9998 17.276 52.7356 17.2564 52.4757C17.24 52.2582 16.9952 52.1204 16.9794 51.9105C16.9634 51.6989 17.1766 51.4153 17.1616 51.2148C17.0489 49.7109 17.4385 45.9274 17.4385 45.8504C17.4084 45.6573 17.3264 45.4755 17.201 45.324L17.3203 44.973L17.2414 44.3145C17.1377 43.4492 17.3227 42.5742 17.7683 41.8212L18.3359 41.4556L20.9547 45.7889C19.8526 49.5387 19.1333 51.0115 20.2928 55.0149Z" fill="#DE5C8E"/>
<path d="M18.5488 87.3247H19.9007L20.5441 82.1948H18.5488V87.3247Z" fill="#FFB6B6"/>
<path d="M18.1083 86.4139L20.2681 86.2871V87.1975L22.3215 88.5926C22.5842 88.771 22.6501 89.1251 22.4687 89.3836C22.3608 89.5374 22.183 89.6291 21.993 89.6291H19.4217L18.9785 88.7287L18.8054 89.6291H17.8359L18.1083 86.4139Z" fill="#2F2E41"/>
<path d="M26.1436 87.3247H27.4954L28.1387 82.1948H26.1436V87.3247Z" fill="#FFB6B6"/>
<path d="M25.703 86.4139L27.8628 86.2871V87.1975L29.9162 88.5926C30.1789 88.771 30.2448 89.1251 30.0635 89.3836C29.9555 89.5374 29.7777 89.6291 29.5878 89.6291H27.0164L26.5732 88.7287L26.4002 89.6291H25.4307L25.703 86.4139Z" fill="#2F2E41"/>
<path d="M17.9755 82.901H17.9808L18.2408 70.6844C17.899 70.0359 17.91 69.2622 18.2699 68.6233L18.3071 68.557L18.2106 68.1169C18.0866 67.5514 18.1435 66.9621 18.3734 66.4297L18.616 58.6492C17.7494 53.1245 21.8791 49.5215 21.8791 49.5215H28.0654L29.3935 54.0105C30.2715 62.4258 30.1122 74.5019 28.7189 82.4467L28.7569 82.4656C28.9065 82.5477 28.9642 82.731 28.888 82.8819C28.8236 83.0654 28.6605 83.1765 28.5238 83.1301L25.2567 83.0183C25.107 82.9362 25.0493 82.7529 25.1256 82.602C25.19 82.4185 25.3531 82.3074 25.4898 82.3538L25.712 82.4643L25.4828 82.0053C25.2016 81.4423 25.256 80.7732 25.6245 80.2612L25.5843 79.2508C25.237 78.8506 25.1215 78.3036 25.2782 77.8005L25.4986 77.0929L25.2382 70.54L25.2908 69.0698L25.1825 67.402L24.6817 59.9001L22.7862 69.1253L20.85 82.9938C20.9447 83.0779 20.9863 83.2056 20.9589 83.3282C20.9178 83.4928 20.7663 83.6073 20.5941 83.6039H17.9661C17.7683 83.6038 17.6082 83.4459 17.6084 83.2514C17.6084 83.2199 17.6128 83.1885 17.6213 83.1581C17.6669 83.0036 17.812 82.8982 17.9755 82.901Z" fill="#2F2E41"/>
<path d="M33.0082 58.8435C33.3575 58.4211 33.2926 57.8002 32.8632 57.4565C32.8174 57.4199 32.7685 57.3873 32.7169 57.3592L31.1218 52.3989L29.3115 53.1915L31.3109 57.8005C31.0738 58.2958 31.2897 58.8864 31.7932 59.1197C32.2144 59.3148 32.7167 59.2007 33.0082 58.8435Z" fill="#FFB6B6"/>
<path d="M26.4465 43.0743C26.4465 43.0743 28.2657 49.4076 28.1833 50.0474C28.0134 51.3667 19.6537 55.4222 19.0319 53.6175L19.1099 53.0243C18.7958 52.4063 20.712 49.9538 20.8051 49.633C20.9233 49.2228 20.3881 47.8759 20.3881 47.8759C20.3881 47.8759 20.758 46.6465 20.6989 45.8853C20.6387 45.1242 20.4603 45.2415 19.8059 44.7721C19.1515 44.3038 18.0801 42.1377 18.0801 42.1377C18.0801 42.1377 18.5561 40.0297 18.5561 39.6195C18.5561 39.2093 20.5118 38.5106 20.7492 38.277C20.8526 38.1413 20.9397 37.9942 21.0086 37.8388C21.0568 37.7441 21.0261 37.5244 21.0776 37.4157C21.1104 37.3446 21.2253 37.3888 21.2592 37.3156C21.2921 37.2445 21.2636 37.1627 21.2964 37.0927C21.3391 37.0001 21.442 36.9194 21.4825 36.8322C21.6685 36.4317 21.8272 36.1055 21.8765 36.1055C21.9946 36.1055 25.8052 36.633 25.8052 36.633C26.0126 36.9486 26.2517 37.2429 26.5188 37.5115C26.9357 37.9206 28.887 38.9165 28.887 38.9165L26.4465 43.0743Z" fill="#DE5C8E"/>
<path d="M31.5911 53.7297C31.2934 54.0225 29.8205 55.3671 29.7603 55.015C29.7012 54.664 29.669 54.6221 29.4304 54.5058C29.1919 54.3885 29.1919 54.3303 29.1328 53.9201C29.0737 53.51 28.5374 53.0998 28.5976 52.9243C28.6567 52.7488 28.6015 52.972 28.6015 52.7955C28.6015 52.62 28.4232 51.9762 28.1846 51.8588C27.9471 51.7415 27.5893 51.6252 27.7687 51.3324C27.9471 51.0395 26.0889 42.2545 26.0889 42.2545L27.7556 39.0343L28.8861 38.917C28.8861 38.917 29.2296 39.1104 29.3372 40.8536C29.3427 40.9419 29.4405 41.1039 29.4447 41.2003C29.4482 41.2805 29.3581 41.2937 29.3606 41.3797C29.3611 41.398 29.3617 41.4165 29.3621 41.4352C29.3644 41.5206 29.599 41.5835 29.6025 41.666C29.6088 41.8134 29.7009 42.7533 29.7109 42.8914C29.722 43.0471 29.7353 43.1972 29.7505 43.3414C29.915 44.9124 29.9739 45.0451 30.0758 45.5465C30.2336 46.3226 30.8877 50.8554 30.8877 50.8554C30.8877 50.8554 31.3637 50.9717 31.3637 51.3819C31.3637 51.7921 31.8888 52.6165 31.6513 53.0848C31.4127 53.5542 31.8888 53.4369 31.5911 53.7297Z" fill="#DE5C8E"/>
<path d="M23.4883 35.9861C25.0476 35.9861 26.3116 34.7426 26.3116 33.2086C26.3116 31.6747 25.0476 30.4312 23.4883 30.4312C21.9291 30.4312 20.665 31.6747 20.665 33.2086C20.665 34.7426 21.9291 35.9861 23.4883 35.9861Z" fill="#FFB8B8"/>
<path d="M17.4063 39.045C16.8088 38.8367 16.2114 38.628 15.6139 38.4189C15.7169 38.249 15.848 38.0971 16.0019 37.9697C16.5708 37.5024 17.3559 37.418 18.0781 37.2603C18.8015 37.1027 19.5866 36.7795 19.851 36.0995C20.1257 35.3923 19.7274 34.6289 19.4962 33.9083C19.1547 32.8976 19.1962 31.7995 19.613 30.8164C20.0445 29.8323 20.9174 29.1022 21.9742 28.8415C23.0203 28.6129 24.2026 28.9856 24.8458 29.8278C25.7035 29.5747 26.6182 29.9913 26.977 30.7984C27.1425 31.1692 27.1169 31.5956 26.9083 31.9447C26.6851 32.2768 26.2078 32.4468 25.8485 32.2622L26.0568 31.742C25.4124 31.957 24.9935 33.1033 25.0805 33.7676C25.1663 34.4308 25.56 35.0118 25.9595 35.5534C26.3589 36.095 26.7847 36.6422 26.9564 37.2896C27.2036 38.2208 26.8694 39.2386 26.2513 39.9852C25.6333 40.7317 24.7623 41.2384 23.8604 41.611C23.1852 41.8903 22.4836 42.103 21.7659 42.2461C21.8941 42.0006 22.0211 41.7552 22.1493 41.5097L20.6282 42.415C20.334 42.4431 20.0376 42.46 19.7412 42.4657C18.8782 42.4803 17.998 42.3913 17.2083 42.0524C16.4174 41.7124 15.7227 41.0965 15.4365 40.2959C15.3448 40.037 15.3014 39.7639 15.3083 39.4897C16.0076 39.3411 16.707 39.1929 17.4063 39.045Z" fill="#2F2E41"/>
<path d="M44.689 89.8404H39.4528L39.4303 89.8002C39.3633 89.6807 39.2987 89.5542 39.2383 89.4241C38.6989 88.2881 38.471 86.9889 38.2698 85.8427L38.1183 84.9786C38.0674 84.6883 38.2654 84.4123 38.5606 84.3623C38.705 84.3377 38.8534 84.3718 38.972 84.4567C39.7677 85.0264 40.5638 85.5955 41.3602 86.164C41.6617 86.3799 42.0061 86.6297 42.3359 86.8996C42.3678 86.7476 42.401 86.5951 42.4343 86.4447C42.498 86.1566 42.787 85.9739 43.0799 86.0365C43.2232 86.0672 43.3478 86.1537 43.4253 86.2762L44.038 87.2445C44.4848 87.9516 44.8792 88.6485 44.7988 89.4C44.7992 89.4091 44.7985 89.4183 44.7967 89.4273C44.7807 89.5507 44.7509 89.6721 44.7078 89.7891L44.689 89.8404Z" fill="#F0F0F0"/>
<path d="M49.9439 89.9522L0.185916 89.9999C0.0821601 89.9993 -0.00151358 89.9161 -0.000973967 89.8141C-0.00043435 89.7128 0.0829254 89.6308 0.185916 89.6302L49.9439 89.5825C50.0476 89.5831 50.1313 89.6662 50.1308 89.7683C50.1302 89.8696 50.0469 89.9516 49.9439 89.9522Z" fill="#CACACA"/>
<path d="M14.182 2.68379C14.9189 2.68379 15.5163 2.083 15.5163 1.3419C15.5163 0.600787 14.9189 0 14.182 0C13.445 0 12.8477 0.600787 12.8477 1.3419C12.8477 2.083 13.445 2.68379 14.182 2.68379Z" fill="#3F3D56"/>
<path d="M18.7923 2.68379C19.5292 2.68379 20.1266 2.083 20.1266 1.3419C20.1266 0.600787 19.5292 0 18.7923 0C18.0554 0 17.458 0.600787 17.458 1.3419C17.458 2.083 18.0554 2.68379 18.7923 2.68379Z" fill="#3F3D56"/>
<path d="M23.4007 2.68379C24.1376 2.68379 24.735 2.083 24.735 1.3419C24.735 0.600787 24.1376 0 23.4007 0C22.6638 0 22.0664 0.600787 22.0664 1.3419C22.0664 2.083 22.6638 2.68379 23.4007 2.68379Z" fill="#3F3D56"/>
<path d="M28.6558 2.40284C28.6148 2.40284 28.5739 2.38722 28.543 2.35615L27.6427 1.45075C27.5827 1.39042 27.5827 1.29401 27.6427 1.23368L28.543 0.328349C28.6041 0.26711 28.7041 0.266124 28.7661 0.325925C28.8284 0.385876 28.8295 0.484177 28.7686 0.545417L27.9762 1.34221L28.7686 2.13908C28.8295 2.20032 28.8284 2.29862 28.7661 2.35858C28.7354 2.38813 28.6956 2.40284 28.6558 2.40284Z" fill="#3F3D56"/>
<path d="M30.1695 2.40198C30.1297 2.40198 30.0899 2.38727 30.0592 2.35771C29.9969 2.29776 29.9958 2.19954 30.0567 2.13822L30.849 1.34135L30.0567 0.544554C29.9958 0.483314 29.9969 0.385013 30.0592 0.325062C30.1214 0.265035 30.2214 0.266173 30.2823 0.327487L31.1825 1.23282C31.2426 1.29315 31.2426 1.38955 31.1825 1.44988L30.2823 2.35529C30.2514 2.38636 30.2105 2.40198 30.1695 2.40198Z" fill="#3F3D56"/>
<path d="M77.2696 0.155273H75.5955C75.4046 0.155273 75.25 0.307387 75.25 0.495207V2.14365C75.25 2.33147 75.4046 2.48359 75.5955 2.48359H77.2696C77.4605 2.48359 77.6167 2.33147 77.6167 2.14365V0.495207C77.6167 0.307387 77.4605 0.155273 77.2696 0.155273Z" fill="#3F3D56"/>
<path d="M73.1671 0.155273H71.493C71.3021 0.155273 71.1475 0.307387 71.1475 0.495207V2.14365C71.1475 2.33147 71.3021 2.48359 71.493 2.48359H73.1671C73.358 2.48359 73.5142 2.33147 73.5142 2.14365V0.495207C73.5142 0.307387 73.358 0.155273 73.1671 0.155273Z" fill="#3F3D56"/>
<path d="M81.1339 0.23291H79.4598C79.2689 0.23291 79.1143 0.385024 79.1143 0.572844V2.22129C79.1143 2.40911 79.2689 2.56122 79.4598 2.56122H81.1339C81.3248 2.56122 81.481 2.40911 81.481 2.22129V0.572844C81.481 0.385024 81.3248 0.23291 81.1339 0.23291Z" fill="#3F3D56"/>
<path d="M55.9015 0.859375H42.5199C42.2864 0.859375 42.0986 1.04564 42.0986 1.27382C42.0986 1.502 42.2864 1.68826 42.5199 1.68826H55.9015C56.1334 1.68826 56.3227 1.50199 56.3227 1.27382C56.3227 1.04565 56.1334 0.859375 55.9015 0.859375Z" fill="#3F3D56"/>
</g>
<defs>
<clipPath id="clip0_1486_16212">
<rect width="85" height="90" fill="white"/>
</clipPath>
</defs>
</svg>
