<svg width="83" height="88" viewBox="0 0 83 88" fill="none" xmlns="http://www.w3.org/2000/svg">
<g clip-path="url(#clip0_1486_16248)">
<path d="M25.6299 64.5552H15.2332C14.9711 64.5552 14.7578 64.3236 14.7578 64.039C14.7578 63.7544 14.9711 63.5229 15.2332 63.5229H25.6299C25.892 63.5229 26.1052 63.7544 26.1052 64.039C26.1052 64.3236 25.892 64.5552 25.6299 64.5552Z" fill="#DE5C8E"/>
<path d="M7.0625 67.3181C7.0625 67.4108 7.13108 67.4852 7.21647 67.4852H33.6479C33.7332 67.4852 33.8018 67.4108 33.8018 67.3181C33.8018 67.2253 33.7332 67.1509 33.6479 67.1509H7.21647C7.13108 67.1509 7.0625 67.2253 7.0625 67.3181Z" fill="#3F3D56"/>
<path d="M62.8278 33.633C67.4724 33.633 71.2376 29.5446 71.2376 24.5013C71.2376 19.458 67.4724 15.3696 62.8278 15.3696C58.1832 15.3696 54.418 19.458 54.418 24.5013C54.418 29.5446 58.1832 33.633 62.8278 33.633Z" fill="#FF6884"/>
<path d="M0 78.8571C0 78.9498 0.0685762 79.0243 0.153972 79.0243H67.7287C67.8141 79.0243 67.8827 78.9498 67.8827 78.8571C67.8827 78.7644 67.8141 78.6899 67.7287 78.6899H0.153972C0.0685762 78.6899 0 78.7644 0 78.8571Z" fill="#3F3D56"/>
<path d="M0.977883 67.5669L0.761719 67.3097L21.8592 46.4057L29.4602 50.1056L37.6682 34.8215L44.4119 31.2919L50.66 42.5993C54.0333 33.1166 62.4932 23.1955 72.6304 13.1299L72.8798 13.3491C63.3721 23.233 55.2374 33.1618 50.6209 43.2055L44.8416 32.7158C44.5685 32.2202 43.9948 32.0288 43.5126 32.2724C39.8265 34.1348 36.7518 37.1748 34.6998 40.9858L29.5583 50.5349L28.3846 49.9636C24.4594 48.053 19.8643 48.8538 16.6868 52.0021L0.977883 67.5669Z" fill="#3F3D56"/>
<path d="M73.1057 15.0327L72.7854 15.0569L72.2685 13.8406L71.1113 13.5854L71.0664 13.2401L72.9739 12.9458L73.1057 15.0327Z" fill="#3F3D56"/>
<path d="M40.1973 22.4755L41.3313 17.7415L45.7494 17.5107L47.0712 24.0364L40.1973 22.4755Z" fill="#FFB6B6"/>
<path opacity="0.1" d="M40.1973 22.4755L41.3313 17.7415L45.7494 17.5107L47.0712 24.0364L40.1973 22.4755Z" fill="black"/>
<path d="M43.1041 20.3903C46.0492 20.3903 48.4367 17.7979 48.4367 14.5999C48.4367 11.402 46.0492 8.80957 43.1041 8.80957C40.159 8.80957 37.7715 11.402 37.7715 14.5999C37.7715 17.7979 40.159 20.3903 43.1041 20.3903Z" fill="#FFB6B6"/>
<path d="M46.0459 15.8257C46.0459 15.8257 44.0201 11.4674 41.6466 11.7191C39.273 11.9707 38.0226 12.2767 38.0226 12.2767C38.0226 12.2767 37.318 8.88226 40.6351 7.5766C40.6351 7.5766 36.4175 3.0622 41.439 0.84769C46.4604 -1.36682 49.2702 1.45751 49.2702 1.45751C49.2702 1.45751 52.9871 5.4866 48.3058 8.49798C48.3058 8.49798 51.7819 13.575 47.5733 17.7596C47.5733 17.7596 48.5146 14.3734 47.5324 14.9978C46.5502 15.6223 46.0459 15.8257 46.0459 15.8257Z" fill="#2F2E41"/>
<path d="M37.2199 46.4185L36.5106 47.1566L31.3861 59.0875L30.8252 78.822H39.435L43.4738 69.0493L46.195 78.7277H53.9364L55.731 61.1584L50.9069 48.733L37.2199 46.4185Z" fill="#2F2E41"/>
<path d="M46.1379 21.9941H40.3881L34.1338 25.6487L35.5922 32.7141C35.5922 32.7141 35.2557 36.9778 36.041 40.145C36.8263 43.3123 36.4897 47.4541 36.4897 47.4541L50.9059 48.7332L51.3547 34.3587L51.1303 24.735L46.1379 21.9941Z" fill="#E6E6E6"/>
<path d="M35.0885 25.7095C35.0885 25.7095 31.6107 25.8313 31.0497 28.2677C30.4888 30.704 30.04 43.2513 30.04 43.2513C30.04 43.2513 30.3766 50.6965 34.1349 47.1566C37.8932 43.6167 37.5567 32.8967 37.5567 32.8967L35.0885 25.7095Z" fill="#E6E6E6"/>
<path d="M68.8214 87.8593H48.3262C47.6321 87.8593 47.0674 87.2462 47.0674 86.4924V63.4865C47.0674 62.7328 47.6321 62.1196 48.3262 62.1196H68.8214C69.5156 62.1196 70.0802 62.7328 70.0802 63.4865V86.4924C70.0802 87.2462 69.5156 87.8593 68.8214 87.8593Z" fill="white"/>
<path d="M68.8229 88.0001H48.3277C47.5622 88.0001 46.9395 87.324 46.9395 86.4928V63.4868C46.9395 62.6557 47.5622 61.9795 48.3277 61.9795H68.8229C69.5883 61.9795 70.2111 62.6557 70.2111 63.4868V86.4928C70.2111 87.324 69.5883 88.0001 68.8229 88.0001ZM48.3277 62.2605C47.7049 62.2605 47.1982 62.8106 47.1982 63.4868V86.4928C47.1982 87.169 47.7049 87.7192 48.3277 87.7192H68.8229C69.4457 87.7192 69.9523 87.169 69.9523 86.4928V63.4868C69.9523 62.8106 69.4457 62.2605 68.8229 62.2605H48.3277Z" fill="#3F3D56"/>
<path d="M59.3815 81.8157H57.6923C57.4866 81.8157 57.3193 81.6754 57.3193 81.5031V73.6061C57.3193 73.4337 57.4866 73.2935 57.6923 73.2935H59.3815C59.5872 73.2935 59.7545 73.4337 59.7545 73.6061V81.5031C59.7545 81.6754 59.5872 81.8157 59.3815 81.8157Z" fill="#DE5C8E"/>
<path d="M53.7965 77.1616C53.6303 77.1616 53.4951 77.2749 53.4951 77.4142V81.494C53.4951 81.6332 53.6303 81.7465 53.7965 81.7465H55.4857C55.6518 81.7465 55.7871 81.6332 55.7871 81.494V77.4142C55.7871 77.2749 55.6518 77.1616 55.4857 77.1616H53.7965Z" fill="#DE5C8E"/>
<path d="M63.277 81.8155H61.5878C61.3821 81.8155 61.2148 81.6753 61.2148 81.5029V68.5611C61.2148 68.3888 61.3821 68.2485 61.5878 68.2485H63.277C63.4827 68.2485 63.65 68.3888 63.65 68.5611V81.5029C63.65 81.6753 63.4827 81.8155 63.277 81.8155Z" fill="#DE5C8E"/>
<path d="M26.9279 25.0869H24.9983C24.7634 25.0869 24.5723 24.9267 24.5723 24.7298V15.7091C24.5723 15.5122 24.7634 15.3521 24.9983 15.3521H26.9279C27.1628 15.3521 27.3539 15.5122 27.3539 15.7091V24.7298C27.3539 24.9267 27.1628 25.0869 26.9279 25.0869Z" fill="#DE5C8E"/>
<path d="M20.5483 19.771C20.3585 19.771 20.2041 19.9004 20.2041 20.0595V24.7198C20.2041 24.8788 20.3585 25.0083 20.5483 25.0083H22.4779C22.6677 25.0083 22.8221 24.8788 22.8221 24.7198V20.0595C22.8221 19.9004 22.6677 19.771 22.4779 19.771H20.5483Z" fill="#DE5C8E"/>
<path d="M31.3771 25.0867H29.4475C29.2126 25.0867 29.0215 24.9266 29.0215 24.7296V9.94645C29.0215 9.74954 29.2126 9.58936 29.4475 9.58936H31.3771C31.612 9.58936 31.8032 9.74954 31.8032 9.94645V24.7296C31.8032 24.9266 31.612 25.0867 31.3771 25.0867Z" fill="#DE5C8E"/>
<path d="M55.4313 65.467C56.4307 65.3631 57.119 63.8967 56.9686 62.1909C56.9171 61.5086 56.7159 60.8496 56.3818 60.269L56.1892 58.3384L56.2187 58.3288L56.7029 49.1749C56.8155 47.0466 56.0396 44.9551 54.5447 43.5731C53.6554 42.7509 52.7067 42.3346 52.0966 43.3734C51.0844 45.0971 52.3956 52.2026 53.2566 56.2423L53.5904 60.5591C53.3637 61.1982 53.2811 61.8868 53.3498 62.5676C53.4999 64.2728 54.4319 65.5709 55.4313 65.467Z" fill="#FFB6B6"/>
<path d="M49.8984 24.9786C49.8984 24.9786 52.8153 23.7604 54.1616 27.415C55.5079 31.0695 56.9663 49.0986 56.9663 49.0986L50.1228 47.7586L49.8984 24.9786Z" fill="#E6E6E6"/>
<path d="M9.84542 23.1905H5.91777C5.65566 23.1905 5.44238 22.9589 5.44238 22.6743C5.44238 22.3897 5.65566 22.1582 5.91777 22.1582H9.84542C10.1075 22.1582 10.3207 22.3897 10.3207 22.6743C10.3207 22.9589 10.1075 23.1905 9.84542 23.1905Z" fill="#E6E6E6"/>
<path d="M9.84542 15.8746H5.91777C5.65566 15.8746 5.44238 15.643 5.44238 15.3584C5.44238 15.0738 5.65566 14.8423 5.91777 14.8423H9.84542C10.1075 14.8423 10.3207 15.0738 10.3207 15.3584C10.3207 15.643 10.1075 15.8746 9.84542 15.8746Z" fill="#E6E6E6"/>
<path d="M9.84542 10.5977H5.91777C5.65566 10.5977 5.44238 10.3661 5.44238 10.0815C5.44238 9.79691 5.65566 9.56543 5.91777 9.56543H9.84542C10.1075 9.56543 10.3207 9.7969 10.3207 10.0815C10.3207 10.3661 10.1075 10.5977 9.84542 10.5977Z" fill="#E6E6E6"/>
<path d="M5.28418 25.112C5.28418 25.2047 5.35276 25.2792 5.43815 25.2792H31.8695C31.9549 25.2792 32.0235 25.2047 32.0235 25.112C32.0235 25.0193 31.9549 24.9448 31.8695 24.9448H5.43815C5.35276 24.9448 5.28418 25.0193 5.28418 25.112Z" fill="#3F3D56"/>
<path d="M56.2607 68.383C56.2607 68.4757 56.3293 68.5502 56.4147 68.5502H82.8461C82.9315 68.5502 83.0001 68.4757 83.0001 68.383C83.0001 68.2903 82.9315 68.2158 82.8461 68.2158H56.4147C56.3293 68.2158 56.2607 68.2903 56.2607 68.383Z" fill="#3F3D56"/>
<path d="M48.499 82.0095C48.499 82.1022 48.5676 82.1766 48.653 82.1766H75.0844C75.1698 82.1766 75.2383 82.1022 75.2383 82.0095C75.2383 81.9167 75.1698 81.8423 75.0844 81.8423H48.653C48.5676 81.8423 48.499 81.9167 48.499 82.0095Z" fill="#3F3D56"/>
<path d="M30.7249 24.2671C29.7255 24.371 29.0372 25.8374 29.1876 27.5432C29.2391 28.2255 29.4403 28.8845 29.7744 29.4651L29.967 31.3957L29.9375 31.4053L29.4533 40.5592C29.3407 42.6875 30.1166 44.779 31.6115 46.161C32.5008 46.9832 33.4495 47.3995 34.0596 46.3607C35.0718 44.637 33.7607 37.5315 32.8996 33.4918L32.5658 29.1749C32.7926 28.5359 32.8751 27.8472 32.8064 27.1665C32.6563 25.4613 31.7243 24.1632 30.7249 24.2671Z" fill="#FFB6B6"/>
</g>
<defs>
<clipPath id="clip0_1486_16248">
<rect width="83" height="88" fill="white"/>
</clipPath>
</defs>
</svg>
