<svg width="153" height="162" viewBox="0 0 153 162" fill="none" xmlns="http://www.w3.org/2000/svg">
<g clip-path="url(#clip0_1374_15884)">
<path d="M143.906 122.996H28.9172C26.784 122.993 25.0552 121.297 25.0527 119.204V27.3395C25.0552 25.2464 26.784 23.5503 28.9172 23.5479H143.906C146.039 23.5503 147.768 25.2464 147.77 27.3395V119.204C147.768 121.297 146.039 122.993 143.906 122.996Z" fill="#E6E6E6"/>
<path d="M132.733 120.437H31.5247C29.3914 120.434 27.6626 118.738 27.6602 116.645V29.8976C27.6626 27.8045 29.3914 26.1084 31.5247 26.106H141.299C143.432 26.1084 145.161 27.8045 145.164 29.8976V108.241C145.156 114.973 139.595 120.429 132.733 120.437Z" fill="white"/>
<path d="M104.92 45.7209H58.7037C58.1532 45.7209 57.707 45.2831 57.707 44.743C57.707 44.203 58.1532 43.7651 58.7037 43.7651H104.92C105.471 43.7651 105.917 44.2029 105.917 44.743C105.917 45.2831 105.471 45.7209 104.92 45.7209Z" fill="#DE5C8E"/>
<path d="M128.316 56.1554H58.7037C58.1532 56.1554 57.707 55.7176 57.707 55.1776C57.707 54.6375 58.1532 54.1997 58.7037 54.1997H128.316C128.866 54.1997 129.312 54.6375 129.312 55.1776C129.312 55.7176 128.866 56.1554 128.316 56.1554Z" fill="#E6E6E6"/>
<path d="M128.316 66.5885H58.7037C58.1532 66.5885 57.707 66.1507 57.707 65.6107C57.707 65.0706 58.1532 64.6328 58.7037 64.6328H128.316C128.866 64.6328 129.312 65.0706 129.312 65.6107C129.312 66.1507 128.866 66.5885 128.316 66.5885Z" fill="#E6E6E6"/>
<path d="M128.316 77.0207H58.7037C58.1532 77.0207 57.707 76.5829 57.707 76.0428C57.707 75.5028 58.1532 75.0649 58.7037 75.0649H128.316C128.866 75.0649 129.312 75.5027 129.312 76.0428C129.312 76.5829 128.866 77.0207 128.316 77.0207Z" fill="#E6E6E6"/>
<path d="M128.316 87.4543H58.7037C58.1532 87.4543 57.707 87.0165 57.707 86.4764C57.707 85.9363 58.1532 85.4985 58.7037 85.4985H128.316C128.866 85.4985 129.312 85.9363 129.312 86.4764C129.312 87.0165 128.866 87.4543 128.316 87.4543Z" fill="#E6E6E6"/>
<path d="M125.183 104.081C122.396 104.081 120.137 101.864 120.137 99.1292C120.137 96.3946 122.396 94.1777 125.183 94.1777C127.971 94.1777 130.23 96.3946 130.23 99.1292C130.23 101.864 127.971 104.081 125.183 104.081Z" fill="#DE5C8E"/>
<path d="M128.025 98.8924L126.594 96.8436C126.462 96.6536 126.198 96.6045 126.005 96.7339C125.811 96.8634 125.761 97.1223 125.893 97.3124L125.894 97.3142L126.82 98.6392H123.195C122.92 98.6384 122.696 98.8565 122.695 99.1262C122.694 99.396 122.917 99.6153 123.192 99.6161H126.865L125.894 101.006C125.763 101.197 125.813 101.455 126.007 101.585C126.2 101.713 126.462 101.665 126.594 101.477L128.025 99.4281C128.12 99.2616 128.12 99.0589 128.025 98.8924Z" fill="white"/>
<path d="M152.476 9.99886H20.3479C20.0645 9.99292 19.8398 9.76275 19.8458 9.48476C19.8517 9.21515 20.0731 8.99795 20.3479 8.99219H152.476C152.759 8.99813 152.984 9.2283 152.978 9.50628C152.972 9.7759 152.75 9.99309 152.476 9.99886Z" fill="#CACACA"/>
<path d="M36.8835 109.226C37.6475 108.599 37.7487 107.483 37.1095 106.733C37.0413 106.653 36.9661 106.58 36.8847 106.513L35.7905 97.2363L32.3164 98.0256L34.2471 106.819C33.656 107.612 33.8322 108.725 34.6406 109.305C35.3171 109.79 36.2443 109.758 36.8835 109.226Z" fill="#FFB6B6"/>
<path d="M36.5234 98.7479L32.5014 101.21C32.5014 101.21 32.2565 102.653 31.98 99.0265C31.9511 98.648 32.2203 97.9886 32.1907 97.6001C32.1573 97.1618 30.8778 96.9624 30.8441 96.519C30.8201 96.2033 31.19 95.9225 31.1661 95.6077C31.1299 95.1309 31.094 94.6566 31.0587 94.1901C31.0292 93.7997 30.5885 93.5523 30.5601 93.1757C30.5315 92.7958 30.9151 92.2868 30.888 91.9268C30.6853 89.2275 31.3864 82.4363 31.3864 82.2982C31.3322 81.9515 31.1847 81.6253 30.959 81.3532L31.1737 80.7233L31.0317 79.5413C30.8452 77.9881 31.178 76.4175 31.98 75.0659L33.0014 74.4097L37.7146 82.1877C35.7313 88.9184 34.4366 91.562 36.5234 98.7479Z" fill="#DE5C8E"/>
<path d="M33.3867 156.742H35.8197L36.9778 147.534H33.3867V156.742Z" fill="#FFB6B6"/>
<path d="M32.5917 155.108L36.4788 154.88V156.514L40.1744 159.018C40.6472 159.338 40.7658 159.974 40.4394 160.438C40.2451 160.714 39.9251 160.879 39.5833 160.879H34.9555L34.1579 159.262L33.8464 160.879H32.1016L32.5917 155.108Z" fill="#2F2E41"/>
<path d="M47.0508 156.742H49.4838L50.6415 147.534H47.0508V156.742Z" fill="#FFB6B6"/>
<path d="M46.2577 155.108L50.1448 154.88V156.514L53.8404 159.018C54.3132 159.338 54.4318 159.974 54.1054 160.438C53.9111 160.714 53.5911 160.879 53.2493 160.879H48.6215L47.8239 159.262L47.5124 160.879H45.7676L46.2577 155.108Z" fill="#2F2E41"/>
<path d="M32.3541 148.801H32.3635L32.8315 126.873C32.2164 125.709 32.2361 124.321 32.8838 123.174L32.9508 123.055L32.7771 122.265C32.554 121.25 32.6564 120.192 33.0702 119.236L33.5067 105.271C31.9472 95.3544 39.3795 88.8872 39.3795 88.8872H50.5131L52.9034 96.9447C54.4836 112.05 54.1969 133.725 51.6894 147.986L51.7577 148.02C52.027 148.167 52.1309 148.496 51.9936 148.767C51.8777 149.096 51.5843 149.296 51.3381 149.212L45.4583 149.012C45.1889 148.864 45.0851 148.535 45.2224 148.265C45.3382 147.935 45.6317 147.736 45.8779 147.819L46.2777 148.018L45.8652 147.194C45.3592 146.183 45.457 144.982 46.1201 144.063L46.0479 142.249C45.4228 141.531 45.215 140.549 45.497 139.646L45.8936 138.376L45.4251 126.614L45.5197 123.975L45.3247 120.982L44.4235 107.516L41.012 124.075L37.5273 148.968C37.6979 149.119 37.7727 149.348 37.7234 149.568C37.6494 149.863 37.3767 150.069 37.0668 150.063H32.3371C31.9812 150.063 31.693 149.779 31.6934 149.43C31.6934 149.374 31.7012 149.317 31.7166 149.263C31.7986 148.985 32.0598 148.796 32.3541 148.801Z" fill="#2F2E41"/>
<path d="M59.4069 105.62C60.0355 104.862 59.9187 103.748 59.146 103.131C59.0636 103.065 58.9755 103.007 58.8826 102.956L56.0119 94.0527L52.7539 95.4753L56.3523 103.748C55.9256 104.637 56.3141 105.697 57.2202 106.116C57.9783 106.466 58.8823 106.261 59.4069 105.62Z" fill="#FFB6B6"/>
<path d="M47.5965 77.3157C47.5965 77.3157 50.8705 88.6837 50.7223 89.832C50.4165 92.2001 35.3711 99.4795 34.2522 96.2401L34.3924 95.1753C33.8272 94.0661 37.2759 89.664 37.4433 89.0881C37.656 88.3519 36.6929 85.9344 36.6929 85.9344C36.6929 85.9344 37.3586 83.7276 37.2523 82.3613C37.1439 80.9951 36.8229 81.2057 35.6451 80.3632C34.4673 79.5226 32.5391 75.6345 32.5391 75.6345C32.5391 75.6345 33.3958 71.8508 33.3958 71.1146C33.3958 70.3783 36.9155 69.1242 37.3429 68.7048C37.5289 68.4613 37.6856 68.1973 37.8096 67.9183C37.8963 67.7483 37.8412 67.3541 37.9337 67.1589C37.9928 67.0313 38.1996 67.1106 38.2607 66.9792C38.3198 66.8516 38.2686 66.7048 38.3277 66.5792C38.4045 66.413 38.5896 66.268 38.6625 66.1115C38.9973 65.3927 39.2829 64.8071 39.3715 64.8071C39.5842 64.8071 46.4423 65.754 46.4423 65.754C46.8156 66.3204 47.2458 66.8487 47.7265 67.3309C48.4769 68.0652 51.9886 69.8527 51.9886 69.8527L47.5965 77.3157Z" fill="#DE5C8E"/>
<path d="M56.8557 96.4409C56.32 96.9665 53.669 99.3798 53.5607 98.7479C53.4543 98.118 53.3964 98.0427 52.9671 97.834C52.5377 97.6233 52.5377 97.519 52.4313 96.7827C52.325 96.0465 51.3599 95.3102 51.4682 94.9952C51.5746 94.6802 51.4753 95.0809 51.4753 94.764C51.4753 94.449 51.1542 93.2934 50.7249 93.0828C50.2975 92.8722 49.6534 92.6635 49.9764 92.1378C50.2975 91.6122 46.9531 75.8436 46.9531 75.8436L49.9528 70.0637L51.9874 69.853C51.9874 69.853 52.6056 70.2001 52.7993 73.3291C52.8091 73.4876 52.9852 73.7784 52.9927 73.9515C52.999 74.0953 52.8369 74.1191 52.8414 74.2734C52.8423 74.3064 52.8433 74.3396 52.8441 74.373C52.8482 74.5264 53.2704 74.6393 53.2767 74.7873C53.288 75.0519 53.4539 76.7389 53.4717 76.9869C53.4919 77.2664 53.5157 77.5356 53.5431 77.7946C53.8391 80.6144 53.9451 80.8526 54.1286 81.7526C54.4126 83.1457 55.5897 91.2818 55.5897 91.2818C55.5897 91.2818 56.4465 91.4905 56.4465 92.2267C56.4465 92.963 57.3914 94.4428 56.964 95.2834C56.5346 96.1259 57.3914 95.9153 56.8557 96.4409Z" fill="#DE5C8E"/>
<path d="M42.2745 64.5908C45.0808 64.5908 47.3557 62.3588 47.3557 59.6055C47.3557 56.8521 45.0808 54.6201 42.2745 54.6201C39.4683 54.6201 37.1934 56.8521 37.1934 59.6055C37.1934 62.3588 39.4683 64.5908 42.2745 64.5908Z" fill="#FFB8B8"/>
<path d="M31.3259 70.0827C30.2506 69.7088 29.1754 69.3342 28.1001 68.959C28.2854 68.6539 28.5215 68.3813 28.7984 68.1526C29.8222 67.3138 31.2352 67.1623 32.535 66.8793C33.8369 66.5964 35.2499 66.0163 35.7258 64.7956C36.2201 63.5264 35.5033 62.1562 35.0872 60.8627C34.4726 59.0485 34.5473 57.0774 35.2973 55.3129C36.074 53.5466 37.645 52.236 39.5469 51.7681C41.4296 51.3578 43.5574 52.0267 44.7151 53.5385C46.2586 53.0842 47.9049 53.8319 48.5506 55.2806C48.8484 55.9461 48.8024 56.7115 48.427 57.338C48.0253 57.9342 47.1663 58.2394 46.5195 57.908L46.8944 56.9743C45.7347 57.3603 44.9808 59.4177 45.1374 60.6101C45.2918 61.8005 46.0004 62.8433 46.7194 63.8154C47.4383 64.7876 48.2045 65.7698 48.5135 66.9319C48.9584 68.6033 48.357 70.4303 47.2446 71.7702C46.1323 73.1102 44.5647 74.0196 42.9415 74.6886C41.7265 75.1898 40.4638 75.5716 39.172 75.8285C39.4027 75.3879 39.6313 74.9473 39.862 74.5067L37.1244 76.1316C36.595 76.1821 36.0615 76.2125 35.528 76.2226C33.9749 76.2488 32.3909 76.0892 30.9695 75.4809C29.5461 74.8705 28.2958 73.765 27.7808 72.328C27.6157 71.8633 27.5376 71.373 27.5501 70.881C28.8087 70.6142 30.0673 70.3481 31.3259 70.0827Z" fill="#2F2E41"/>
<path d="M80.4258 161.258H71.002L70.9615 161.186C70.841 160.972 70.7247 160.745 70.6159 160.511C69.6452 158.472 69.2349 156.14 68.8729 154.083L68.6003 152.532C68.5087 152.011 68.865 151.515 69.3962 151.426C69.6562 151.382 69.9233 151.443 70.1366 151.595C71.5688 152.618 73.0015 153.639 74.4348 154.66C74.9775 155.047 75.5973 155.495 76.1909 155.98C76.2481 155.707 76.308 155.433 76.3679 155.163C76.4825 154.646 77.0027 154.318 77.5298 154.431C77.7877 154.486 78.012 154.641 78.1515 154.861L79.254 156.599C80.0582 157.868 80.768 159.119 80.6234 160.468C80.6241 160.484 80.6229 160.501 80.6197 160.517C80.5907 160.739 80.5371 160.956 80.4597 161.166L80.4258 161.258Z" fill="#F0F0F0"/>
<path d="M89.8875 161.458L0.336358 161.544C0.149624 161.543 -0.000966496 161.393 4.67104e-06 161.21C0.000975838 161.028 0.151001 160.881 0.336358 160.88L89.8875 160.794C90.0742 160.795 90.2248 160.945 90.2238 161.128C90.2228 161.31 90.0728 161.457 89.8875 161.458Z" fill="#CACACA"/>
<path d="M25.5244 4.81674C26.8507 4.81674 27.9258 3.73837 27.9258 2.40813C27.9258 1.07789 26.8507 -0.000488281 25.5244 -0.000488281C24.1982 -0.000488281 23.123 1.07789 23.123 2.40813C23.123 3.73837 24.1982 4.81674 25.5244 4.81674Z" fill="#3F3D56"/>
<path d="M33.8194 4.81674C35.1456 4.81674 36.2208 3.73837 36.2208 2.40813C36.2208 1.07789 35.1456 -0.000488281 33.8194 -0.000488281C32.4931 -0.000488281 31.418 1.07789 31.418 2.40813C31.418 3.73837 32.4931 4.81674 33.8194 4.81674Z" fill="#3F3D56"/>
<path d="M42.1162 4.81674C43.4425 4.81674 44.5176 3.73837 44.5176 2.40813C44.5176 1.07789 43.4425 -0.000488281 42.1162 -0.000488281C40.79 -0.000488281 39.7148 1.07789 39.7148 2.40813C39.7148 3.73837 40.79 4.81674 42.1162 4.81674Z" fill="#3F3D56"/>
<path d="M51.5743 4.31212C51.5005 4.31212 51.4269 4.2841 51.3713 4.22832L49.7509 2.60318C49.6429 2.49489 49.6429 2.32184 49.7509 2.21355L51.3713 0.588547C51.4812 0.478626 51.6612 0.476857 51.7728 0.584195C51.885 0.691803 51.8869 0.868248 51.7772 0.978168L50.3512 2.40837L51.7772 3.8387C51.8869 3.94862 51.885 4.12506 51.7728 4.23267C51.7176 4.28573 51.6459 4.31212 51.5743 4.31212Z" fill="#3F3D56"/>
<path d="M54.2977 4.31135C54.226 4.31135 54.1543 4.28495 54.0991 4.2319C53.9869 4.12429 53.985 3.94798 54.0947 3.83793L55.5206 2.40759L54.0947 0.977396C53.985 0.867475 53.9869 0.691031 54.0991 0.583423C54.211 0.475678 54.391 0.47772 54.5006 0.587774L56.1208 2.21278C56.2289 2.32107 56.2289 2.49412 56.1208 2.6024L54.5006 4.22755C54.445 4.28332 54.3714 4.31135 54.2977 4.31135Z" fill="#3F3D56"/>
<path d="M139.066 0.278809H136.054C135.71 0.278809 135.432 0.551842 135.432 0.888968V3.84782C135.432 4.18495 135.71 4.45798 136.054 4.45798H139.066C139.41 4.45798 139.691 4.18495 139.691 3.84782V0.888968C139.691 0.551842 139.41 0.278809 139.066 0.278809Z" fill="#3F3D56"/>
<path d="M131.682 0.278809H128.669C128.325 0.278809 128.047 0.551842 128.047 0.888968V3.84782C128.047 4.18495 128.325 4.45798 128.669 4.45798H131.682C132.025 4.45798 132.306 4.18495 132.306 3.84782V0.888968C132.306 0.551842 132.025 0.278809 131.682 0.278809Z" fill="#3F3D56"/>
<path d="M146.023 0.417969H143.011C142.667 0.417969 142.389 0.691003 142.389 1.02813V3.98698C142.389 4.32411 142.667 4.59714 143.011 4.59714H146.023C146.367 4.59714 146.648 4.32411 146.648 3.98698V1.02813C146.648 0.691003 146.367 0.417969 146.023 0.417969Z" fill="#3F3D56"/>
<path d="M100.611 1.54395H76.5277C76.1075 1.54395 75.7695 1.87828 75.7695 2.28785C75.7695 2.69742 76.1075 3.03174 76.5277 3.03174H100.611C101.028 3.03174 101.369 2.6974 101.369 2.28785C101.369 1.8783 101.028 1.54395 100.611 1.54395Z" fill="#3F3D56"/>
</g>
<defs>
<clipPath id="clip0_1374_15884">
<rect width="152.871" height="161.657" fill="white"/>
</clipPath>
</defs>
</svg>
