<svg width="881" height="523" viewBox="0 0 881 523" fill="none" xmlns="http://www.w3.org/2000/svg">
<g clip-path="url(#clip0_1784_16710)">
<path d="M643.527 65.3194C643.527 65.3194 637.841 75.7776 636.171 76.228C634.501 76.6784 630.24 115.803 653.244 110.757C676.248 105.711 667.821 93.4446 667.821 93.4446C667.821 93.4446 668.22 79.9339 669.101 79.028C669.982 78.1221 644.517 64.8345 644.517 64.8345L643.527 65.3194Z" fill="#FFB9B9"/>
<path d="M794.475 215.583H87.6901C84.7075 215.611 81.8565 216.816 79.7573 218.935C77.6581 221.054 76.4805 223.916 76.4805 226.899C76.4805 229.881 77.6581 232.743 79.7573 234.862C81.8565 236.981 84.7075 238.186 87.6901 238.214H107.71V508.914C107.738 511.897 108.943 514.748 111.062 516.847C113.181 518.946 116.043 520.124 119.026 520.124C122.008 520.124 124.87 518.946 126.99 516.847C129.109 514.748 130.313 511.897 130.341 508.914L130.513 238.214H750.084V508.914C750.084 511.915 751.276 514.793 753.398 516.915C755.52 519.037 758.399 520.229 761.4 520.229C764.401 520.229 767.279 519.037 769.401 516.915C771.523 514.793 772.715 511.915 772.715 508.914L776.007 238.214H794.476C797.459 238.186 800.31 236.981 802.409 234.862C804.508 232.743 805.686 229.881 805.686 226.899C805.686 223.916 804.508 221.054 802.409 218.935C800.31 216.816 797.459 215.611 794.476 215.583H794.475Z" fill="#CCCCCC"/>
<path d="M210.203 165.163V213.081H90.1499C83.8211 213.26 77.6784 210.928 73.0626 206.595C68.4468 202.261 65.7327 196.278 65.5126 189.95C65.2924 183.623 67.5842 177.465 71.8877 172.821C76.1912 168.177 82.1569 165.424 88.4829 165.163C89.0382 165.144 89.5939 165.144 90.1499 165.163H210.203Z" fill="#F2F2F2"/>
<path d="M213.153 212.713C213.153 213.202 212.958 213.67 212.613 214.016C212.267 214.362 211.798 214.556 211.31 214.556H88.0098C81.313 214.556 74.8906 211.896 70.1553 207.161C65.42 202.425 62.7598 196.003 62.7598 189.306C62.7598 182.609 65.42 176.187 70.1553 171.452C74.8906 166.716 81.313 164.056 88.0098 164.056H211.31C211.799 164.056 212.267 164.25 212.613 164.596C212.959 164.942 213.153 165.41 213.153 165.899C213.153 166.388 212.959 166.857 212.613 167.202C212.267 167.548 211.799 167.742 211.31 167.742H88.0098C82.2909 167.742 76.8063 170.014 72.7625 174.058C68.7186 178.102 66.4468 183.586 66.4468 189.305C66.4468 195.024 68.7186 200.509 72.7625 204.552C76.8063 208.596 82.2909 210.868 88.0098 210.868H211.31C211.552 210.868 211.792 210.916 212.015 211.009C212.239 211.102 212.442 211.238 212.613 211.409C212.785 211.58 212.92 211.784 213.013 212.007C213.105 212.231 213.153 212.471 213.153 212.713Z" fill="#DE5C8E"/>
<path d="M210.203 176.222H81.1934C81.0989 176.218 81.0095 176.178 80.9437 176.11C80.8779 176.042 80.8408 175.951 80.8399 175.857C80.839 175.762 80.8744 175.671 80.9389 175.602C81.0034 175.532 81.092 175.491 81.1864 175.485H210.203C210.298 175.49 210.387 175.531 210.452 175.599C210.517 175.668 210.553 175.759 210.553 175.853C210.553 175.948 210.517 176.039 210.452 176.107C210.387 176.176 210.298 176.217 210.203 176.222Z" fill="#CCCCCC"/>
<path d="M210.202 185.068H81.1922C81.1422 185.071 81.0922 185.064 81.0451 185.047C80.998 185.03 80.9548 185.004 80.9182 184.969C80.8816 184.935 80.8523 184.894 80.8321 184.848C80.8119 184.803 80.8013 184.753 80.8008 184.703C80.8003 184.653 80.81 184.603 80.8293 184.557C80.8486 184.511 80.8771 184.469 80.9131 184.434C80.9491 184.4 80.9917 184.373 81.0385 184.355C81.0853 184.337 81.1352 184.329 81.1852 184.331H210.202C210.297 184.336 210.386 184.377 210.451 184.445C210.516 184.514 210.552 184.605 210.552 184.699C210.552 184.794 210.516 184.885 210.451 184.953C210.386 185.022 210.297 185.063 210.202 185.068Z" fill="#CCCCCC"/>
<path d="M210.203 193.914H81.1934C81.0989 193.91 81.0095 193.87 80.9437 193.802C80.8779 193.734 80.8408 193.643 80.8399 193.549C80.839 193.454 80.8744 193.363 80.9389 193.293C81.0034 193.224 81.092 193.182 81.1864 193.177H210.203C210.298 193.182 210.387 193.223 210.452 193.291C210.517 193.36 210.553 193.451 210.553 193.545C210.553 193.64 210.517 193.731 210.452 193.799C210.387 193.868 210.298 193.909 210.203 193.914Z" fill="#CCCCCC"/>
<path d="M210.202 202.761H81.1922C81.1422 202.764 81.0922 202.757 81.0451 202.74C80.998 202.723 80.9548 202.696 80.9182 202.662C80.8816 202.628 80.8523 202.587 80.8321 202.541C80.8119 202.495 80.8013 202.446 80.8008 202.396C80.8003 202.346 80.81 202.296 80.8293 202.25C80.8486 202.204 80.8771 202.162 80.9131 202.127C80.9491 202.093 80.9917 202.065 81.0385 202.048C81.0853 202.03 81.1352 202.022 81.1852 202.024H210.202C210.297 202.029 210.386 202.07 210.451 202.138C210.516 202.207 210.552 202.298 210.552 202.392C210.552 202.487 210.516 202.578 210.451 202.646C210.386 202.715 210.297 202.756 210.202 202.761Z" fill="#CCCCCC"/>
<path d="M187.572 114.679V162.597H67.519C61.1902 162.776 55.0476 160.444 50.4318 156.111C45.816 151.777 43.1018 145.794 42.8817 139.466C42.6616 133.139 44.9534 126.981 49.2568 122.337C53.5603 117.693 59.5261 114.94 65.852 114.679C66.4073 114.66 66.963 114.66 67.519 114.679H187.572Z" fill="#F2F2F2"/>
<path d="M190.522 162.229C190.522 162.718 190.327 163.186 189.982 163.532C189.636 163.877 189.168 164.072 188.679 164.072H65.3789C58.6822 164.072 52.2597 161.412 47.5244 156.676C42.7892 151.941 40.1289 145.518 40.1289 138.822C40.1289 132.125 42.7892 125.703 47.5244 120.967C52.2597 116.232 58.6822 113.572 65.3789 113.572H188.679C188.921 113.572 189.161 113.619 189.384 113.712C189.608 113.805 189.811 113.94 189.982 114.112C190.153 114.283 190.289 114.486 190.382 114.71C190.474 114.933 190.522 115.173 190.522 115.415C190.522 115.657 190.474 115.896 190.382 116.12C190.289 116.344 190.153 116.547 189.982 116.718C189.811 116.889 189.608 117.025 189.384 117.117C189.161 117.21 188.921 117.258 188.679 117.258H65.3789C59.66 117.258 54.1754 119.53 50.1316 123.573C46.0877 127.617 43.8159 133.102 43.8159 138.821C43.8159 144.54 46.0877 150.024 50.1316 154.068C54.1754 158.112 59.66 160.384 65.3789 160.384H188.679C189.168 160.384 189.636 160.578 189.982 160.924C190.327 161.269 190.522 161.738 190.522 162.227V162.229Z" fill="#090814"/>
<path d="M187.571 125.737H58.5613C58.5113 125.74 58.4613 125.733 58.4142 125.716C58.3671 125.699 58.3239 125.673 58.2873 125.639C58.2507 125.604 58.2214 125.563 58.2012 125.517C58.181 125.472 58.1704 125.422 58.1699 125.372C58.1695 125.322 58.1792 125.273 58.1985 125.226C58.2178 125.18 58.2463 125.138 58.2822 125.104C58.3182 125.069 58.3608 125.042 58.4076 125.024C58.4544 125.006 58.5043 124.998 58.5543 125H187.571C187.621 124.997 187.671 125.005 187.718 125.022C187.765 125.04 187.808 125.066 187.845 125.101C187.881 125.135 187.91 125.177 187.93 125.223C187.949 125.269 187.959 125.318 187.959 125.369C187.959 125.419 187.949 125.468 187.93 125.514C187.91 125.56 187.881 125.602 187.845 125.636C187.808 125.671 187.765 125.697 187.718 125.715C187.671 125.732 187.621 125.74 187.571 125.737Z" fill="#CCCCCC"/>
<path d="M187.571 134.583H58.5613C58.5113 134.586 58.4613 134.579 58.4142 134.562C58.3671 134.545 58.3239 134.519 58.2873 134.485C58.2507 134.451 58.2214 134.409 58.2012 134.364C58.181 134.318 58.1704 134.268 58.1699 134.218C58.1695 134.168 58.1792 134.119 58.1985 134.073C58.2178 134.026 58.2463 133.985 58.2822 133.95C58.3182 133.915 58.3608 133.888 58.4076 133.87C58.4544 133.852 58.5043 133.844 58.5543 133.846H187.571C187.621 133.844 187.671 133.851 187.718 133.869C187.765 133.886 187.808 133.913 187.845 133.947C187.881 133.982 187.91 134.023 187.93 134.069C187.949 134.115 187.959 134.165 187.959 134.215C187.959 134.265 187.949 134.314 187.93 134.36C187.91 134.406 187.881 134.448 187.845 134.482C187.808 134.517 187.765 134.544 187.718 134.561C187.671 134.578 187.621 134.586 187.571 134.583Z" fill="#CCCCCC"/>
<path d="M187.571 143.43H58.5613C58.5113 143.433 58.4613 143.426 58.4142 143.409C58.3671 143.392 58.3239 143.366 58.2873 143.331C58.2507 143.297 58.2214 143.256 58.2012 143.21C58.181 143.165 58.1704 143.115 58.1699 143.065C58.1695 143.015 58.1792 142.965 58.1985 142.919C58.2178 142.873 58.2463 142.831 58.2822 142.796C58.3182 142.762 58.3608 142.735 58.4076 142.717C58.4544 142.699 58.5043 142.691 58.5543 142.693H187.571C187.621 142.69 187.671 142.698 187.718 142.715C187.765 142.733 187.808 142.759 187.845 142.794C187.881 142.828 187.91 142.87 187.93 142.916C187.949 142.962 187.959 143.011 187.959 143.061C187.959 143.111 187.949 143.161 187.93 143.207C187.91 143.253 187.881 143.295 187.845 143.329C187.808 143.363 187.765 143.39 187.718 143.408C187.671 143.425 187.621 143.432 187.571 143.43Z" fill="#CCCCCC"/>
<path d="M187.571 152.276H58.5613C58.5113 152.279 58.4613 152.272 58.4142 152.255C58.3671 152.238 58.3239 152.212 58.2873 152.178C58.2507 152.144 58.2214 152.102 58.2012 152.057C58.181 152.011 58.1704 151.961 58.1699 151.911C58.1695 151.861 58.1792 151.812 58.1985 151.765C58.2178 151.719 58.2463 151.677 58.2822 151.643C58.3182 151.608 58.3608 151.581 58.4076 151.563C58.4544 151.545 58.5043 151.537 58.5543 151.539H187.571C187.621 151.536 187.671 151.544 187.718 151.561C187.765 151.579 187.808 151.605 187.845 151.64C187.881 151.674 187.91 151.716 187.93 151.762C187.949 151.808 187.959 151.857 187.959 151.908C187.959 151.958 187.949 152.007 187.93 152.053C187.91 152.099 187.881 152.141 187.845 152.175C187.808 152.21 187.765 152.236 187.718 152.254C187.671 152.271 187.621 152.279 187.571 152.276Z" fill="#CCCCCC"/>
<path d="M327.231 385.144V343.364C327.23 341.517 326.497 339.746 325.191 338.441C323.885 337.135 322.114 336.401 320.268 336.401H161.85C160.003 336.401 158.232 337.135 156.926 338.441C155.621 339.746 154.887 341.517 154.887 343.364V385.144H327.231Z" fill="#CCCCCC"/>
<path d="M327.231 400.813H154.887V454.779H327.231V400.813Z" fill="#CCCCCC"/>
<path d="M154.887 470.447V512.227C154.887 514.074 155.62 515.845 156.926 517.151C158.232 518.457 160.003 519.191 161.85 519.191H320.267C322.113 519.191 323.884 518.457 325.19 517.151C326.496 515.846 327.23 514.074 327.23 512.228V470.447H154.887Z" fill="#CCCCCC"/>
<path d="M240.188 367.738C243.072 367.738 245.411 365.4 245.411 362.515C245.411 359.63 243.072 357.292 240.188 357.292C237.303 357.292 234.965 359.63 234.965 362.515C234.965 365.4 237.303 367.738 240.188 367.738Z" fill="white"/>
<path d="M240.188 437.372C243.072 437.372 245.411 435.033 245.411 432.149C245.411 429.264 243.072 426.926 240.188 426.926C237.303 426.926 234.965 429.264 234.965 432.149C234.965 435.033 237.303 437.372 240.188 437.372Z" fill="white"/>
<path d="M240.467 505.532C243.352 505.532 245.69 503.194 245.69 500.309C245.69 497.424 243.352 495.086 240.467 495.086C237.583 495.086 235.244 497.424 235.244 500.309C235.244 503.194 237.583 505.532 240.467 505.532Z" fill="white"/>
<path d="M307.689 288.764V336.682H187.636C184.478 336.812 181.325 336.316 178.36 335.223C175.394 334.129 172.673 332.46 170.355 330.311C168.037 328.163 166.166 325.577 164.851 322.702C163.536 319.828 162.802 316.722 162.692 313.563C162.582 310.404 163.098 307.254 164.21 304.295C165.322 301.336 167.008 298.626 169.171 296.322C171.334 294.017 173.932 292.162 176.815 290.865C179.697 289.568 182.808 288.854 185.968 288.764C186.524 288.745 187.08 288.745 187.636 288.764H307.689Z" fill="#F2F2F2"/>
<path d="M310.64 336.313C310.64 336.801 310.446 337.27 310.1 337.616C309.755 337.961 309.286 338.155 308.797 338.156H185.499C178.803 338.16 172.379 335.503 167.641 330.771C162.902 326.038 160.238 319.617 160.234 312.921C160.23 306.224 162.887 299.8 167.619 295.062C172.352 290.324 178.773 287.66 185.469 287.656H308.797C309.286 287.656 309.755 287.85 310.101 288.196C310.446 288.541 310.64 289.01 310.64 289.499C310.64 289.988 310.446 290.456 310.101 290.802C309.755 291.148 309.286 291.342 308.797 291.342H185.499C179.781 291.342 174.296 293.614 170.252 297.657C166.208 301.701 163.936 307.186 163.936 312.905C163.936 318.624 166.208 324.108 170.252 328.152C174.296 332.196 179.781 334.468 185.499 334.468H308.799C309.288 334.469 309.756 334.663 310.102 335.009C310.447 335.355 310.641 335.824 310.64 336.313Z" fill="#090814"/>
<path d="M307.69 299.822H178.68C178.63 299.825 178.58 299.818 178.533 299.801C178.486 299.784 178.443 299.758 178.406 299.724C178.37 299.689 178.341 299.648 178.32 299.602C178.3 299.557 178.29 299.507 178.289 299.457C178.289 299.407 178.298 299.357 178.318 299.311C178.337 299.265 178.365 299.223 178.401 299.189C178.437 299.154 178.48 299.127 178.527 299.109C178.574 299.091 178.623 299.083 178.673 299.085H307.69C307.74 299.082 307.79 299.09 307.837 299.107C307.884 299.125 307.927 299.151 307.964 299.186C308 299.22 308.029 299.262 308.049 299.308C308.068 299.354 308.079 299.403 308.079 299.453C308.079 299.504 308.068 299.553 308.049 299.599C308.029 299.645 308 299.687 307.964 299.721C307.927 299.756 307.884 299.782 307.837 299.8C307.79 299.817 307.74 299.825 307.69 299.822Z" fill="#CCCCCC"/>
<path d="M307.69 308.669H178.68C178.63 308.672 178.58 308.665 178.533 308.648C178.486 308.631 178.443 308.605 178.406 308.571C178.37 308.537 178.341 308.495 178.32 308.45C178.3 308.404 178.29 308.354 178.289 308.304C178.289 308.254 178.298 308.205 178.318 308.158C178.337 308.112 178.365 308.071 178.401 308.036C178.437 308.001 178.48 307.974 178.527 307.956C178.574 307.938 178.623 307.93 178.673 307.932H307.69C307.74 307.93 307.79 307.937 307.837 307.954C307.884 307.972 307.927 307.999 307.964 308.033C308 308.068 308.029 308.109 308.049 308.155C308.068 308.201 308.079 308.251 308.079 308.301C308.079 308.351 308.068 308.4 308.049 308.446C308.029 308.492 308 308.534 307.964 308.568C307.927 308.603 307.884 308.629 307.837 308.647C307.79 308.664 307.74 308.672 307.69 308.669Z" fill="#CCCCCC"/>
<path d="M307.69 317.514H178.68C178.63 317.517 178.58 317.51 178.533 317.493C178.486 317.476 178.443 317.45 178.406 317.415C178.37 317.381 178.341 317.34 178.32 317.294C178.3 317.249 178.29 317.199 178.289 317.149C178.289 317.099 178.298 317.049 178.318 317.003C178.337 316.957 178.365 316.915 178.401 316.88C178.437 316.846 178.48 316.819 178.527 316.801C178.574 316.783 178.623 316.775 178.673 316.777H307.69C307.74 316.774 307.79 316.782 307.837 316.799C307.884 316.817 307.927 316.843 307.964 316.878C308 316.912 308.029 316.954 308.049 317C308.068 317.046 308.079 317.095 308.079 317.145C308.079 317.195 308.068 317.245 308.049 317.291C308.029 317.337 308 317.379 307.964 317.413C307.927 317.447 307.884 317.474 307.837 317.492C307.79 317.509 307.74 317.516 307.69 317.514Z" fill="#CCCCCC"/>
<path d="M307.69 326.361H178.68C178.63 326.364 178.58 326.357 178.533 326.34C178.486 326.323 178.443 326.297 178.406 326.263C178.37 326.229 178.341 326.187 178.32 326.141C178.3 326.096 178.29 326.046 178.289 325.996C178.289 325.946 178.298 325.897 178.318 325.85C178.337 325.804 178.365 325.762 178.401 325.728C178.437 325.693 178.48 325.666 178.527 325.648C178.574 325.63 178.623 325.622 178.673 325.624H307.69C307.74 325.621 307.79 325.629 307.837 325.646C307.884 325.664 307.927 325.69 307.964 325.725C308 325.759 308.029 325.801 308.049 325.847C308.068 325.893 308.079 325.942 308.079 325.993C308.079 326.043 308.068 326.092 308.049 326.138C308.029 326.184 308 326.226 307.964 326.26C307.927 326.295 307.884 326.321 307.837 326.339C307.79 326.356 307.74 326.364 307.69 326.361Z" fill="#CCCCCC"/>
<path d="M166.695 98.6932H111.995C111.475 98.6922 110.962 98.8113 110.495 99.0412L96.69 105.952C96.2356 106.145 95.8482 106.468 95.5758 106.88C95.3034 107.291 95.1582 107.774 95.1582 108.268C95.1582 108.761 95.3034 109.244 95.5758 109.656C95.8482 110.068 96.2356 110.39 96.69 110.583L110.495 117.494C110.962 117.724 111.475 117.843 111.995 117.842H166.695C167.449 117.886 168.189 117.63 168.756 117.132C169.323 116.633 169.671 115.931 169.724 115.178V101.357C169.671 100.604 169.323 99.9023 168.756 99.4037C168.189 98.905 167.449 98.6498 166.695 98.6932Z" fill="#090814"/>
<path d="M169.724 101.357V115.178C169.671 115.931 169.323 116.633 168.756 117.132C168.189 117.63 167.449 117.886 166.695 117.842H155.795V98.6932H166.695C167.449 98.6498 168.189 98.905 168.756 99.4037C169.323 99.9023 169.671 100.604 169.724 101.357Z" fill="#DE5C8E"/>
<path d="M241.559 111.757C246.341 113.437 251.475 113.858 256.466 112.979C261.458 112.099 266.139 109.949 270.059 106.736C280.042 98.357 283.173 84.552 285.719 71.769L293.252 33.96L277.481 44.82C266.139 52.63 254.542 60.689 246.689 72.001C238.836 83.313 235.408 98.754 241.718 110.994" fill="#E6E6E6"/>
<path d="M242.903 157.534C241.303 145.907 239.665 134.134 240.785 122.378C241.779 111.941 244.964 101.747 251.446 93.389C254.887 88.9606 259.074 85.1664 263.819 82.177C265.056 81.396 266.195 83.357 264.963 84.134C256.754 89.3225 250.404 96.984 246.829 106.014C242.881 116.056 242.247 127.003 242.929 137.67C243.34 144.121 244.212 150.53 245.091 156.93C245.16 157.219 245.117 157.524 244.97 157.783C244.823 158.042 244.583 158.235 244.299 158.324C244.009 158.402 243.7 158.363 243.439 158.214C243.178 158.066 242.986 157.821 242.905 157.532L242.903 157.534Z" fill="#F2F2F2"/>
<path d="M258.279 136.957C260.33 140.074 263.15 142.611 266.466 144.322C269.781 146.033 273.482 146.862 277.211 146.728C286.795 146.273 294.785 139.584 301.977 133.234L323.251 114.451L309.171 113.777C299.046 113.293 288.659 112.841 279.015 115.963C269.371 119.085 260.479 126.6 258.717 136.583" fill="#E6E6E6"/>
<path d="M238.395 164.216C246.078 150.621 254.99 135.516 270.914 130.683C275.342 129.345 279.984 128.866 284.592 129.271C286.044 129.396 285.682 131.635 284.232 131.51C276.509 130.869 268.8 132.908 262.404 137.285C256.249 141.474 251.457 147.298 247.404 153.475C244.92 157.258 242.694 161.202 240.468 165.14C239.755 166.398 237.676 165.489 238.395 164.216Z" fill="#F2F2F2"/>
<path d="M226.085 178.526C226.344 175.526 227.421 172.655 229.199 170.225C230.976 167.795 233.387 165.899 236.167 164.745V156.886H249.349V164.993C251.993 166.204 254.268 168.095 255.943 170.472C257.618 172.85 258.632 175.629 258.882 178.526L261.982 214.557H222.982L226.085 178.526Z" fill="#F2F2F2"/>
<path d="M476.194 214.496L470.419 212.064L466.457 183.113H413.699L409.405 211.946L404.238 214.529C403.991 214.653 403.793 214.856 403.676 215.106C403.559 215.357 403.53 215.639 403.593 215.908C403.657 216.177 403.809 216.416 404.026 216.588C404.243 216.759 404.511 216.853 404.787 216.853H475.718C476.001 216.853 476.276 216.755 476.495 216.575C476.714 216.396 476.865 216.146 476.921 215.869C476.977 215.591 476.935 215.302 476.803 215.052C476.67 214.801 476.455 214.605 476.194 214.495V214.496Z" fill="#E6E6E6"/>
<path d="M569.948 186.965H310.787C309.427 186.962 308.124 186.42 307.164 185.458C306.203 184.495 305.664 183.191 305.664 181.831V145.286H575.071V181.831C575.071 183.191 574.532 184.495 573.571 185.458C572.611 186.42 571.308 186.962 569.948 186.965Z" fill="#CCCCCC"/>
<path d="M575.342 162.558H305.428V6.189C305.431 4.54829 306.084 2.97564 307.244 1.81558C308.404 0.655521 309.977 0.00264372 311.618 0H569.152C570.792 0.00264372 572.365 0.655521 573.525 1.81558C574.686 2.97564 575.339 4.54829 575.342 6.189V162.558Z" fill="#090814"/>
<path d="M559.221 151.209H321.549C320.284 151.208 319.071 150.705 318.177 149.81C317.282 148.915 316.779 147.702 316.777 146.437V16.1211C316.779 14.8559 317.282 13.6429 318.177 12.7483C319.071 11.8536 320.284 11.3504 321.549 11.3491H559.221C560.487 11.3504 561.7 11.8536 562.594 12.7483C563.489 13.6429 563.992 14.8559 563.993 16.1211V146.441C563.992 147.706 563.489 148.919 562.594 149.814C561.7 150.709 560.487 151.212 559.221 151.213V151.209Z" fill="white"/>
<path d="M496.622 197.194C498.156 195.777 499.983 194.713 501.974 194.079C503.964 193.444 506.069 193.254 508.141 193.52C510.213 193.787 512.201 194.505 513.965 195.624C515.729 196.742 517.227 198.234 518.353 199.994L550.501 194.278L558.739 212.967L513.227 220.394C510.146 222.083 506.553 222.585 503.127 221.804C499.701 221.024 496.68 219.014 494.636 216.157C492.591 213.3 491.665 209.792 492.032 206.298C492.399 202.803 494.033 199.564 496.627 197.194H496.622Z" fill="#FFB6B6"/>
<path d="M526.387 221.053L559.902 220.635L564.144 220.578L632.331 219.719C632.331 219.719 650.848 202.054 666.972 183.866L664.711 167.519C662.506 151.477 654.549 136.782 642.319 126.17C619.226 141.601 605.834 172.143 605.834 172.143L563.555 182.255L559.325 183.266L533.055 189.544L526.387 221.053Z" fill="#DE5C8E"/>
<path d="M697.953 321.523H635.393C635.393 324.204 567.007 326.379 567.007 326.379C565.498 327.515 564.123 328.818 562.907 330.264C559.257 334.618 557.262 340.121 557.273 345.803V349.688C557.276 356.127 559.835 362.301 564.388 366.854C568.94 371.407 575.115 373.966 581.553 373.968H697.953C704.391 373.963 710.564 371.403 715.116 366.851C719.668 362.298 722.228 356.126 722.233 349.688V345.803C722.224 339.366 719.664 333.196 715.112 328.644C710.561 324.093 704.39 321.532 697.953 321.523Z" fill="#E4E4E4"/>
<path d="M652.459 373.004H627.207V518.758H652.459V373.004Z" fill="#E4E4E4"/>
<path d="M555.338 517.871C555.338 520.599 593.603 518.926 640.805 518.926C688.007 518.926 726.272 520.599 726.272 517.871C726.272 515.143 688.007 493.506 640.805 493.506C593.603 493.506 555.338 515.142 555.338 517.871Z" fill="#E4E4E4"/>
<path d="M538.375 501.217H519.581L510.641 428.729H538.377L538.375 501.217Z" fill="#FFB6B6"/>
<path d="M482.83 501.217H464.036L455.096 428.729H482.832L482.83 501.217Z" fill="#FFB6B6"/>
<path d="M651.176 83.892C669.222 83.892 683.852 69.2625 683.852 51.216C683.852 33.1696 669.222 18.54 651.176 18.54C633.13 18.54 618.5 33.1696 618.5 51.216C618.5 69.2625 633.13 83.892 651.176 83.892Z" fill="#FFB6B6"/>
<path d="M704.062 275.102C704.062 275.102 715.026 333.077 673.31 340.46C631.594 347.843 571.371 353.032 571.371 353.032L544.334 479.199L508.004 475.955C508.004 475.955 512.836 324.078 524.718 312.196C536.6 300.314 611.701 264.739 611.701 264.739L704.062 275.102Z" fill="#090814"/>
<path d="M622.587 250.804L604.342 269.104C604.342 269.104 472.606 290.327 467.524 320.753C459.851 366.69 450.789 466.584 450.789 466.584L490.397 463.613L505.928 350.061L569.3 335.646L641.4 296.353L622.587 250.804Z" fill="#090814"/>
<path d="M682.62 31.711C679.392 25.625 675.292 13.496 668.785 11.246C665.169 10.047 661.432 9.25085 657.642 8.87197L646.576 13.128L652.599 8.44398C651.426 8.37731 650.254 8.32031 649.083 8.27298L641.616 11.145L645.436 8.17398C638.475 8.10298 631.29 8.82598 625.896 13.064C621.296 16.677 616.742 30.364 616.005 36.164C615.217 41.7133 615.493 47.3617 616.817 52.808L618.708 54.608C619.369 53.0914 619.867 51.5084 620.192 49.886C620.87 46.8545 622.171 43.9975 624.015 41.4971C625.858 38.9966 628.201 36.9075 630.897 35.363L630.997 35.305C634.168 33.52 638.017 33.605 641.653 33.733L658.926 34.355C663.082 34.505 667.556 34.768 670.796 37.374C672.855 39.2968 674.474 41.6421 675.542 44.249C677.152 47.498 680.298 59.749 680.298 59.749C680.298 59.749 682.078 57.436 682.931 59.157C684.299 54.6648 685.13 50.0266 685.409 45.339C685.682 40.6309 684.72 35.9332 682.62 31.711Z" fill="#090814"/>
<path d="M796.906 65.5671C794.822 65.7049 792.794 66.2979 790.964 67.3043C789.133 68.3108 787.546 69.7062 786.314 71.3923C785.081 73.0784 784.233 75.0142 783.829 77.0635C783.426 79.1127 783.476 81.2255 783.977 83.2531L757.697 102.636L765.577 121.476L802.3 93.5821C805.652 92.5149 808.496 90.255 810.292 87.2308C812.089 84.2067 812.714 80.6285 812.048 77.1745C811.382 73.7205 809.472 70.6308 806.68 68.491C803.888 66.3513 800.409 65.3102 796.9 65.5651L796.906 65.5671Z" fill="#FFB6B6"/>
<path d="M792.678 105.136L726.805 178.295C726.805 178.295 695.305 168.21 670.94 157.277L659.995 123.661C657.454 115.862 656.369 107.663 656.795 99.4718C690.569 90.4848 729.852 123.925 729.852 123.925L779.161 85.3008L792.678 105.136Z" fill="#DE5C8E"/>
<path d="M638.971 280.505C627.219 276.445 615.071 272.248 601.958 270.672L601.395 270.604L601.549 270.059C615.118 222.416 611.732 191.94 605.083 146.159C603.669 136.284 605.486 126.217 610.263 117.46C615.04 108.703 622.521 101.725 631.589 97.5689L631.669 97.5329L669.107 95.1539L669.192 95.1489L696.419 103.157C700.336 104.317 703.765 106.73 706.179 110.025C708.594 113.321 709.861 117.316 709.787 121.401C709.487 136.457 710.118 153.266 710.781 171.061C712.267 210.985 713.803 252.268 705.081 279.053L705.034 279.193L704.919 279.284C696.904 285.812 686.863 289.339 676.526 289.257C664.309 289.258 651.841 284.95 638.971 280.505Z" fill="#DE5C8E"/>
<path d="M879.232 522.591H1.27396C0.573956 522.591 0.00195312 521.812 0.00195312 520.85C0.00195312 519.888 0.571956 519.109 1.27396 519.109H879.232C879.932 519.109 880.504 519.888 880.504 520.85C880.504 521.812 879.935 522.591 879.232 522.591Z" fill="#CCCCCC"/>
<path d="M477.877 492.023C479.725 490.071 481.429 487.989 482.977 485.792C485.936 481.692 488.562 502.704 488.562 502.704C488.562 502.704 491.41 511.249 490.698 515.521C489.986 519.793 473.609 519.793 470.761 519.081C467.913 518.369 453.672 519.081 453.672 519.081H432.306C413.793 510.537 432.306 504.84 432.306 504.84C438.006 504.128 457.228 486.327 457.228 486.327L461.5 478.495C464.348 477.783 467.2 488.464 467.2 488.464L477.877 492.023Z" fill="#090814"/>
<path d="M533.164 492.023C535.012 490.071 536.716 487.989 538.264 485.792C541.223 481.692 543.849 502.704 543.849 502.704C543.849 502.704 546.697 511.249 545.985 515.521C545.273 519.793 528.896 519.793 526.048 519.081C523.2 518.369 508.959 519.081 508.959 519.081H487.593C469.08 510.537 487.593 504.84 487.593 504.84C493.293 504.128 512.515 486.327 512.515 486.327L516.787 478.495C519.635 477.783 522.487 488.464 522.487 488.464L533.164 492.023Z" fill="#090814"/>
</g>
<defs>
<clipPath id="clip0_1784_16710">
<rect width="880.503" height="522.591" fill="white"/>
</clipPath>
</defs>
</svg>
